<?xml version="1.0" encoding="UTF-8"?>
<svg width="36px" height="36px" viewBox="0 0 36 36" version="1.1" xmlns="http://www.w3.org/2000/svg" xmlns:xlink="http://www.w3.org/1999/xlink">
    <title>token-cake</title>
    <defs>
        <linearGradient x1="50%" y1="0%" x2="50%" y2="100%" id="linearGradient-1">
            <stop stop-color="#53DEE9" offset="0%"></stop>
            <stop stop-color="#1FC7D4" offset="100%"></stop>
        </linearGradient>
    </defs>
    <g id="token-cake" stroke="none" stroke-width="1" fill="none" fill-rule="evenodd">
        <g id="cake">
            <circle id="Oval" fill="url(#linearGradient-1)" fill-rule="nonzero" cx="18" cy="18" r="18"></circle>
            <path d="M17.94675,29.953125 C14.4435,29.9505 11.622,29.10975 9.65025,27.6 C7.654875,26.071875 6.59625,23.903625 6.59625,21.45 C6.59625,19.086 7.652625,17.38125 8.84775,16.228875 C9.784125,15.325875 10.817625,14.747625 11.53725,14.414625 C11.3392374,13.8098778 11.1566781,13.2001797 10.98975,12.586125 C10.74675,11.682375 10.50825,10.62225 10.50825,9.84525 C10.50825,8.92575 10.708875,8.002125 11.249625,7.284375 C11.82075,6.5265 12.680625,6.120375 13.714875,6.120375 C14.523375,6.120375 15.209625,6.420375 15.747375,6.9375 C16.26075,7.43175 16.602375,8.08875 16.838625,8.773125 C17.253375,9.976125 17.415,11.487375 17.46,12.995625 L18.451125,12.995625 C18.496125,11.487375 18.65775,9.976125 19.0725,8.773125 C19.30875,8.08875 19.650375,7.43175 20.16375,6.9375 C20.7015,6.42 21.38775,6.12 22.19625,6.12 C23.2305,6.12 24.090375,6.5265 24.6615,7.284375 C25.20225,8.002125 25.402875,8.92575 25.402875,9.845625 C25.402875,10.62225 25.164375,11.682375 24.921375,12.586125 C24.7544643,13.2001846 24.5719048,13.8098832 24.373875,14.414625 C25.0935,14.747625 26.127,15.325875 27.063375,16.228875 C28.2585,17.38125 29.314875,19.086 29.314875,21.45 C29.314875,23.903625 28.25625,26.071875 26.260875,27.6 C24.2895,29.10975 21.467625,29.9505 17.964375,29.953125 L17.94675,29.953125 L17.94675,29.953125 Z" id="Path" fill="#633001"></path>
            <path d="M13.714875,6.994875 C12.199875,6.994875 11.502375,8.13675 11.502375,9.715875 C11.502375,10.971 12.312375,13.484625 12.645375,14.463375 C12.72,14.6835 12.602625,14.924625 12.388125,15.010125 C11.173875,15.493875 7.590375,17.264625 7.590375,21.320625 C7.590375,25.593 11.232,28.81425 17.9475,28.8195 L17.963625,28.8195 C24.679125,28.81425 28.32075,25.593 28.32075,21.320625 C28.32075,17.264625 24.73725,15.4935 23.523,15.010125 C23.3062494,14.9244811 23.1935571,14.6849689 23.26575,14.463375 C23.598375,13.484625 24.40875,10.971 24.40875,9.715875 C24.40875,8.13675 23.71125,6.994875 22.19625,6.994875 C20.01525,6.994875 19.4715,10.115625 19.4325,13.465125 C19.4316886,13.6875875 19.2522045,13.8680742 19.02975,13.870125 L16.881,13.870125 C16.65975,13.870125 16.480875,13.688625 16.47825,13.465125 C16.439625,10.115625 15.895875,6.994875 13.714875,6.994875 L13.714875,6.994875 Z" id="Path" fill="#D1884F" fill-rule="nonzero"></path>
            <path d="M17.963625,27.45075 C13.029375,27.45075 7.598625,24.782625 7.590375,21.3285 L7.590375,21.344625 C7.590375,25.62075 11.238,28.8435 17.963625,28.8435 C24.68925,28.8435 28.3365,25.62075 28.3365,21.344625 L28.3365,21.3285 C28.32825,24.78225 22.897875,27.45075 17.963625,27.45075 Z" id="Path" fill="#FEDC90" fill-rule="nonzero"></path>
            <path d="M15.222,20.267625 C15.222,21.433875 14.676375,22.041375 14.00325,22.041375 C13.3305,22.041375 12.784875,21.433875 12.784875,20.267625 C12.784875,19.101375 13.3305,18.493875 14.003625,18.493875 C14.676375,18.493875 15.222,19.101375 15.222,20.267625 Z M23.142,20.267625 C23.142,21.433875 22.596375,22.041375 21.92325,22.041375 C21.2505,22.041375 20.70525,21.433875 20.70525,20.267625 C20.70525,19.101375 21.2505,18.493875 21.923625,18.493875 C22.596375,18.493875 23.142375,19.101375 23.142375,20.267625 L23.142,20.267625 Z" id="Shape" fill="#633001" fill-rule="nonzero"></path>
        </g>
    </g>
</svg>